<svg xmlns="http://www.w3.org/2000/svg" width="893" height="404" viewBox="0 0 893 404">
  <defs>
    <style>
      .cls-1 {
        fill: #8311a4;
        fill-rule: evenodd;
      }
    </style>
  </defs>
  <path id="Color_Fill_1" data-name="Color Fill 1" class="cls-1" d="M116,93c12.28-.206,28.489-0.678,37,3v1h2v1l5,1,9,10c0.291,6.716.113,12.613-5,14-1.146,1-6.384,1.836-9,1v-1h-3v-1h-2v-1h-3v-1l-4-1v-1h-3v-1h-2v-1h-4v-1h-3v-1c-7.093-2.239-22.821,2.863-26,5l-8,9v10h1v2l3,2,4,5,5,1v1h2v1l6,1v1h5v1h5v1h5v1h3v1l8,1v1l4,1v1h2v1h2v1h2v1h2l3,4c3.4,3.379,8.718,6.684,11,11q1,4.5,2,9h1c1.338,4.267-.084,24.971-1,28v5h-1v3h-1v3h-1v3c-3.234,7.31-9.695,11.73-15,17l-3,4h-2v1h-2v1l-5,1v1h-5c-3.945,1.2-12.624,3.822-19,2v-1h-9v-1h-4v-1h-3v-1H99v-1H96v-1H94v-1l-9-3-1-2-4-1-8-9v-7c5.168-4.345,6.293-9.816,16-10v1l5,1v1h2v1h2v1h2v1h2v1l6,2v1l9,2v1h9c1.393,0.244-.412,1.076,1,1v-1l9-1,2-3h2l4-5,2-1v-2l2-1v-3h1q0.5-3,1-6h1c0.983-3.1-.426-8.387-1-10q-0.5-3-1-6l-2-1v-2h-1l-3-4h-2q-0.5-1-1-2h-2v-1h-2v-1h-2v-1l-6-1v-1h-4v-1h-4v-1l-9-1v-1l-8-1v-1h-2v-1l-6-1v-1l-4-1c-4.3-2.714-7.491-7.416-11-11l-3-2-1-4H74c-2.259-5.188-2.1-13.687-2-21,0.069-5.162,1.385-7.716,3-11v-2h1v-2l4-3c3.539-3.563,6.692-8.285,11-11l4-1V99h3V98h2V97h3V96h3V95C109.6,93.8,113.5,95.212,116,93Zm538,0c13.18-.228,25.6-0.193,35,3l7,1v1l4,1v1h3v1h2q0.5,1,1,2h2l5,6,6,5q0.5,2,1,4h1c1.394,3.183,3.793,24.429,2,30h-1v3h-1v4h-1v3h-1v3h-1v3l-2,1v2h-1v2l-4,3-6,7c-7.17,4.8-28.98,8.426-41,5-3.412-.973-7.573-0.087-10-1v66h-1c-0.668,2.826-1.849,3.77-4,5-3.213,3.448-9.462,1.522-13,0-1.016-1.881-3.246-4.109-4-6v-4h-1V231h-1V210c-2.488-8.92-1-23.31-1-34V115h1q0.5-6,1-12c3.151-1.856,4.02-4.925,8-6,2.586-2.453,4.2-.827,8-2V94h7V93Zm-1,24v43c1.135,0.844.145-.127,1,1l23,1h7v-1l5-1,8-9c0.191-4.845,4.243-17.339,1-21-0.832-3.236-2.107-3.094-4-5l-4-5h-3v-1h-2v-1h-3C672.869,114.414,662.9,115.1,653,117ZM487,138h8v1c7.335,1.925,7.476,10.267,10,17l9-8q0.5-1,1-2l4-1v-1l4-1v-1l6-1v-1h23v1l5,1c3,5.094,4.949,4,5,13-3.128,2.809-3.1,6.715-8,8-4.055,3.957-10.108.139-16,2v1l-6,1v1l-4,1-5,6-3,2q-0.5,2.5-1,5h-1v2h-1q-0.5,4.5-1,9h-1c-1.779,5.485.781,12.644-1,19h-1v15c0,6.871,1.849,17.8-1,21-0.955,3.6-8.628,11.372-15,9v-1h-2l-2-3-2-1q-0.5-6.5-1-13v-5h-1V211h-1V197h-1V187h-1v-8h-1v-5h-1v-8h-1v-4c-2.18-6.776-3.527-11.687-2-20l3-2v-1h3v-1Zm-295,1c5.056-.029,6.393,1.184,10,2,0.945,1.8,1.385,1.574,2,4,1.949,2.307,0,19.346,0,25,0,19.707.182,36.632,5,51v5h1q0.5,3,1,6h1v1h5v-1l5-1v-1h2q0.5-1,1-2h2l2-3h2l6-7,2-1v-2l2-1V199c-2.417-2.7.135-8.839-1-13-1.9-6.963-1-18.361-1-27V149h1q0.5-2,1-4l6-5a53.612,53.612,0,0,1,11,1c0.6,1.137,1.725,1.546,2,2v2h1v4h1v28h1v21h1v12h1v7h1v13h1v6c1.919,6.491,3.231,9.809,2,17l-6,5h-4c-12.035,3.753-12.418-8.266-14-18h-1l-8,7-2,3-4,1q-0.5,1-1,2h-3v1h-3v1c-2.107.812-11.741,2.043-15,1v-1h-3v-1h-3l-7-8-3-2v-2l-2-1v-2h-1v-2h-1v-3h-1v-2h-1q-0.5-3.5-1-7h-1v-4h-1q-0.5-5-1-10h-1V179q0.5-14.5,1-29h1q0.5-2.5,1-5l4-3v-1C189.678,139.842,190.292,141.02,192,139ZM303,252c0.056,22.832.045,47.776-1,69-7.3,4.939-5.46,11.511-19,9-1-1.823-3.332-4.148-4-6V184c0-15.757-3.521-40.633,9-44v-1h6v1h3l4,7,3-1v-1h2v-1l6-2v-1h4c3-.96,17.615-2.4,22-1v1h3v1h3v1h3c3.427,1.522,5.517,4.522,8,7l7,6v2l2,1v2h1l1,4h1q0.5,3,1,6h1v2h1q0.5,4,1,8h1v6h1v13c0,7.967.3,16.171-2,22h-1v3h-1l-1,4h-1l-1,4-5,4-10,11-6,2v1h-2v1h-3v1h-3v1h-5c-2.974.88-16.664,2.4-21,1C308.3,254.127,306.76,252.437,303,252Zm100-47c-0.168,6.322.9,10.789,3,15h1v3l5,4,2,3h9l11-4v-1h2l2-3h2v-1l3-2,2-3h2l1-2h2v-1l7-2v1c5.678,1.085,11.011,6.859,11,14-1.977,1.734-.846,2.328-2,4l-5,4c-5.165,5.176-9.639,11.018-16,15l-9,3v1h-2v1h-3v1h-4v1h-5v1c-4.851,1.39-16.62-1.44-19-3l-8-9-5-4-10-24v-5a40.154,40.154,0,0,1-2-14c-0.012-11.808-.179-19.707,3-28v-3h1l1-4h1v-3l2-1,1-4,5-4,4-5,6-2v-1h2v-1c2.2-.866,20.544-2.05,24-1v1h4v1h3v1l6,2v1h2l1,2h2l6,7,2,1c1.155,1.683.026,2.261,2,4v15h-1v3c-2.178,5.012-5.485,7.483-9,11l-7,8C430.673,203.589,417.031,205.139,403,205Zm0-22h14c2.33-.753,4.849-2.341,8-3,3.158-5.321,5.941-4.6,6-14-3.652-2.181-3.491-3.971-10-4v-1h-1v1h-5v1c-3.237.81-3.1,2.111-5,4l-4,3v2h-1C403.462,174.882,402.97,178.622,403,183Zm-85-20c-1.849,2.136-4.624,2.317-7,4l-1,2-4,3v2h-1c-0.959,1.236-.723,1.937-2,3v48l4,3v1l6,2v1c4.109,1.461,13.369-.139,16-1h4v-1h2l8-6v-2l3-2c1.019-1.826,1.195-5.747,2-8h1v-9h1v-6h-1V186h-1v-4h-1v-3h-1v-2h-1v-3l-9-8v-1h-3C330.455,162.558,323.172,162.9,318,163Z"/>
</svg>
