<svg xmlns="http://www.w3.org/2000/svg" width="268" height="299" viewBox="0 0 268 299">
  <defs>
    <style>
      .cls-1 {
        fill: #86159b;
        fill-rule: evenodd;
      }
    </style>
  </defs>
  <path id="Color_Fill_1" data-name="Color Fill 1" class="cls-1" d="M20,17c22.218,2.309,45.061,3,70,3h31c25.676-5.361,65.3-3.364,85,5,21.214,9.006,34.432,31.2,40,56,2.739,12.2-2.378,25.169-5,33-8.839,26.4-26.153,40.766-54,48-15.9,4.13-53.9-2.1-58-11V137c27.034,0.5,44.211-2.831,53-20,3.1-6.06,2.272-11.163,4-19,7.516-34.093-11.982-55.963-37-62-10.817-2.61-32.186-.2-35,6V149c3.157,5.148,1,19.722,1,27,0,21.37-3.938,58.011,2,75,11.839,0.048,27.868,1.364,38,5,0.722,4.87,1.872,10.426-1,14-4.709,3.035-19.161,1.133-26,1-4.5-2.835-21.569-2-29-2H61a170.038,170.038,0,0,1-33,4V260c10.811-5.439,23.632-8.945,34-14,1.52-20.6.022-45.24,0-66-0.016-14.661,1.773-33.12-1-46-2.02-9.379.751-21.869-1-30V76c-0.948-10.32-2.079-23.682-4-32-3.127-1.922-5.429-5.624-9-7-4.806-1.851-11.631-1.842-16-3-3.915-1.038-9.434.122-11-3V17Z"/>
</svg>
